# xmcd
#
# Track frame offsets: 
#        150
#        22655
#        41412
#        51897
#        62135
#        79205
#        90692
#        96527
#        107690
#        120272
#        134107
#        144330
#        160127
#        185837
#        196017
#        218500
#        228962
#        246142
#
# Disc length: 3430 seconds
#
# Revision: 1
# Processed by: cddbd v1.5.2PL0 Copyright (c) Steve Scherf et al.
# Submitted via: ExactAudioCopy v1.0b3
#
DISCID=f00d6412
DTITLE=Clapton, Eric And The Yardbirds - Eric Clapton And The Yardbird
DTITLE=s
DYEAR=1900
DGENRE=Blues
TTITLE0=Five Long Years
TTITLE1=They Call It Stormy Monday
TTITLE2=West Coast Idea
TTITLE3=Eric's Blues
TTITLE4=Big Boss Man
TTITLE5=Pounds And Stomps
TTITLE6=Choker
TTITLE7=Snake Drive
TTITLE8=Freight Loader
TTITLE9=Draggin' My Tail
TTITLE10=A Certain Girl
TTITLE11=Louise
TTITLE12=She's So Respectable
TTITLE13=I Wish You Would
TTITLE14=First Time I Met The Blues
TTITLE15=Got To Hurry
TTITLE16=Early In The Morning
TTITLE17=For Your Love
EXTD=
EXTT0=
EXTT1=
EXTT2=
EXTT3=
EXTT4=
EXTT5=
EXTT6=
EXTT7=
EXTT8=
EXTT9=
EXTT10=
EXTT11=
EXTT12=
EXTT13=
EXTT14=
EXTT15=
EXTT16=
EXTT17=
PLAYORDER=
